<?xml version="1.0" standalone="no"?><!DOCTYPE svg PUBLIC "-//W3C//DTD SVG 1.1//EN" "http://www.w3.org/Graphics/SVG/1.1/DTD/svg11.dtd"><svg t="1604470946111" class="icon" viewBox="0 0 1024 1024" version="1.1" xmlns="http://www.w3.org/2000/svg" p-id="4115" xmlns:xlink="http://www.w3.org/1999/xlink" width="200" height="200"><defs><style type="text/css"></style></defs><path d="M21.382537 44.226072A21.187977 21.187977 0 0 0 0.19456 65.414048v937.397975a21.187977 21.187977 0 0 0 21.187977 20.456978H228.15031a21.187977 21.187977 0 0 0 21.187977-21.187977V65.414048a21.187977 21.187977 0 0 0-21.187977-21.187976H21.382537z m54.06694 803.692121a53.335942 53.335942 0 1 1 48.951947 32.878964 53.335942 53.335942 0 0 1-51.143944-32.878964z m128.58986-523.130428H45.49351v-26.302971h158.545827z m0-119.09287H45.49351v-26.301971h158.545827z m329.514639-162.929822H326.785203a21.187977 21.187977 0 0 0-21.187977 21.187977v937.396975a21.187977 21.187977 0 0 0 21.187977 21.188977h206.768773a21.187977 21.187977 0 0 0 21.187977-21.188977V63.95305a21.187977 21.187977 0 0 0-21.187977-21.187977zM377.199147 826.730216a53.335942 53.335942 0 1 1 105.940885 0 53.335942 53.335942 0 0 1-105.940885 0z m134.435853-502.67345H350.896176v-27.032971h160.738824v26.302971z m0-119.822869H350.896176V177.930925h160.738824v26.302972zM816.306667 0.38812L614.653888 38.381078a21.187977 21.187977 0 0 0-13.151986 8.76799 20.457978 20.457978 0 0 0 0 15.342984l181.926801 943.972967a21.187977 21.187977 0 0 0 20.457978 16.803982l202.383778-37.991959a21.187977 21.187977 0 0 0 13.151986-8.76799 20.457978 20.457978 0 0 0 0-15.342983L841.14864 17.193101A21.187977 21.187977 0 0 0 816.306667 0.38812z m54.066941 824.881097a53.335942 53.335942 0 0 1-54.066941-22.649975 51.143944 51.143944 0 0 1 0-57.719937 53.335942 53.335942 0 0 1 54.79794-21.918976 51.874943 51.874943 0 0 1 0 101.557889z m-25.571972-550.164398L689.907805 304.330787l-5.113994-25.571972 154.893831-29.224968z m-21.918976-114.708874L667.989829 189.620913l-5.114994-25.571972 154.893831-29.224968z" p-id="4116"></path></svg>