<?xml version="1.0" standalone="no"?><!DOCTYPE svg PUBLIC "-//W3C//DTD SVG 1.1//EN" "http://www.w3.org/Graphics/SVG/1.1/DTD/svg11.dtd"><svg class="icon" width="200px" height="200.00px" viewBox="0 0 1024 1024" version="1.1" xmlns="http://www.w3.org/2000/svg"><path d="M997.805 254.81L542.958 55.565s-15.082-9.526-31.752-10.32h-1.586c-16.67 0.794-31.752 10.32-31.752 10.32L23.814 254.809c-7.938 3.175-12.7 11.113-12.7 19.051v38.897h76.998c0 37.308 38.102 32.545 38.102 32.545h767.603s38.102 4.763 38.102-32.545h76.999V273.86c1.587-7.938-3.175-15.082-11.113-19.05z m-32.546 624.719h-908.9c-34.926 0-34.133 34.133-34.133 34.133v57.154h977.166v-57.154s0.794-34.133-34.133-34.133z m-810.468-499.3V779.51h-38.896c-31.752 0-33.34 33.34-33.34 33.34v32.545h858.096V812.85s-1.587-33.34-33.34-33.34h-38.895V380.23h-125.42v399.28H666.79V380.23H542.164v400.074h-61.916V380.229H355.622V779.51h-76.205V380.23H154.791z" fill="#bfcbd9" /></svg>