<?xml version="1.0" standalone="no"?><!DOCTYPE svg PUBLIC "-//W3C//DTD SVG 1.1//EN" "http://www.w3.org/Graphics/SVG/1.1/DTD/svg11.dtd"><svg class="icon" width="200px" height="200.00px" viewBox="0 0 1024 1024" version="1.1" xmlns="http://www.w3.org/2000/svg"><path d="M551.400234 80.782951V39.445131c0-21.755434-17.553009-39.445131-39.353341-39.445131-21.802327 0-39.446129 17.689697-39.446129 39.445131V80.782951C230.112231 100.783383 39.352842 303.643204 39.352842 551.399735h5.726952c17.552011-67.805517 78.612895-118.151812 151.867996-118.151813 73.34789 0 134.315985 50.346295 151.960785 118.151813h11.084745C374.313694 496.249385 417.636989 453.20246 472.600764 438.837188v427.66165c0 13.162013-3.786373 78.796476-78.705683 78.796476-71.868261 0-78.427317-60.552043-78.796477-79.073844-0.185577-21.662646-17.644799-39.075972-39.35334-39.075972s-39.445131 17.597906-39.445131 39.35334c0 63.277833 41.939449 157.501162 157.594948 157.501162 115.471918 0 157.505153-94.223329 157.505153-157.501162V438.837188c55.054568 14.365271 98.194282 57.412197 112.606446 112.562547h11.177534c17.552011-67.805517 78.611897-118.151812 151.866998-118.151813 73.348888 0 134.316983 50.346295 151.868994 118.151813h5.726952C984.648156 303.643204 793.980558 100.876172 551.400234 80.782951" fill="#bfcbd9" /></svg>