<?xml version="1.0" standalone="no"?><!DOCTYPE svg PUBLIC "-//W3C//DTD SVG 1.1//EN" "http://www.w3.org/Graphics/SVG/1.1/DTD/svg11.dtd"><svg class="icon" width="200px" height="199.80px" viewBox="0 0 1025 1024" version="1.1" xmlns="http://www.w3.org/2000/svg"><path d="M371.448 450.55c75.416 27.75 165.526-26.88 200.34-121.495L652.99 108.9c34.918-94.616-10.547-135.319-100.81-90.468l-52.735 26.265a484.904 484.904 0 0 0-214.575 218.67 146.173 146.173 0 0 0 86.578 187.183z m80.587 203.669c27.75-75.416-26.88-165.526-121.546-200.341l-220.155-81.202c-94.514-34.815-135.217 10.65-90.418 100.76L46.13 526.17a484.955 484.955 0 0 0 218.62 214.625 146.378 146.378 0 0 0 187.387-86.68z m555.251-103.473l-26.214-52.735a484.239 484.239 0 0 0-218.516-214.625 146.275 146.275 0 0 0-187.44 86.577c-27.75 75.416 26.88 165.526 121.496 200.341l220.41 81.201c94.514 34.56 135.217-10.598 90.264-100.861zM655.55 573.632c-75.365-27.75-165.526 26.88-200.341 121.495l-81.15 220.155c-34.918 94.615 10.496 135.318 100.76 90.468l52.734-26.162a484.7 484.7 0 0 0 214.626-218.62 146.326 146.326 0 0 0-86.629-187.49z" fill="#bfcbd9" /></svg>