<?xml version="1.0" standalone="no"?><!DOCTYPE svg PUBLIC "-//W3C//DTD SVG 1.1//EN" "http://www.w3.org/Graphics/SVG/1.1/DTD/svg11.dtd"><svg class="icon" width="200px" height="200.00px" viewBox="0 0 1024 1024" version="1.1" xmlns="http://www.w3.org/2000/svg"><path d="M231.348 534.756L512 676.978c5.689 3.792 13.274 3.792 18.963 0l259.793-140.326c7.585-3.793 11.377-11.378 11.377-18.963V157.393c0-34.134-28.444-62.578-62.577-62.578H280.652c-34.133 0-62.578 28.444-62.578 62.578v358.4c1.896 7.585 5.689 15.17 13.274 18.963z m94.815-297.719H665.6c11.378 0 20.86 7.585 20.86 18.963s-9.482 18.963-20.86 18.963H326.163c-11.378 0-20.86-7.585-20.86-18.963 0-13.274 9.482-18.963 20.86-18.963z m0 113.778h254.104c11.377 0 20.859 7.585 20.859 18.963s-9.482 18.963-20.86 18.963H326.164c-11.378 0-20.86-7.585-20.86-18.963s9.482-18.963 20.86-18.963z m-138.43-75.852H108.09c-34.133 0-51.2 22.756-51.2 56.889v109.985l130.844 66.37V274.963z m724.386 0h-66.37v231.348l130.844-70.163v-102.4c0-36.03-30.341-58.785-64.474-58.785zM513.896 724.385L47.407 489.245v373.57c0 36.03 30.341 66.37 66.37 66.37h790.756c39.823 0 72.06-32.237 72.06-72.06V485.453l-441.837 240.83c-7.586 1.896-15.17 1.896-20.86-1.897z" fill="#bfcbd9" /></svg>