<?xml version="1.0" standalone="no"?><!DOCTYPE svg PUBLIC "-//W3C//DTD SVG 1.1//EN" "http://www.w3.org/Graphics/SVG/1.1/DTD/svg11.dtd"><svg class="icon" width="200px" height="200.00px" viewBox="0 0 1024 1024" version="1.1" xmlns="http://www.w3.org/2000/svg"><path d="M162.300432 0.00032h698.413885a106.653234 106.653234 0 0 1 106.653233 101.533366l39.678971 807.435058a106.653234 106.653234 0 0 1-106.653234 114.973018h-774.379914a108.573184 108.573184 0 0 1-74.654064-27.519287 109.853151 109.853151 0 0 1-35.199087-85.309787l39.454977-809.579002A106.653234 106.653234 0 0 1 162.300432 0.00032z m32.095167 312.343899c0 155.451968 143.356282 280.568723 319.9917 280.568722s319.9917-125.724739 319.991701-280.568722c0-21.759436-17.919535-39.422977-39.998963-39.422978s-39.934964 17.663542-39.934964 39.422978c0 116.572976-107.325216 210.426542-240.057774 210.426542S274.55352 428.533205 274.55352 312.312219a37.823019 37.823019 0 0 0-39.390978-35.167087 37.855018 37.855018 0 0 0-40.766943 35.199087z" fill="#bfcbd9" /></svg>