<?xml version="1.0" standalone="no"?><!DOCTYPE svg PUBLIC "-//W3C//DTD SVG 1.1//EN" "http://www.w3.org/Graphics/SVG/1.1/DTD/svg11.dtd"><svg t="1604471409003" class="icon" viewBox="0 0 1024 1024" version="1.1" xmlns="http://www.w3.org/2000/svg" p-id="4876" width="128" height="128" xmlns:xlink="http://www.w3.org/1999/xlink"><defs><style type="text/css"></style></defs><path d="M516.067328 56.9344a130.8672 130.8672 0 0 0-47.786667 8.192l-317.44 144.725333c-12.629333 6.7584-17.408 12.970667-17.408 18.978134 0 5.461333 3.618133 9.557333 15.701334 13.1072l3.8912 1.4336L467.393195 385.024c14.062933 5.870933 29.2864 8.8064 44.578133 8.533333 17.749333 0 36.181333-3.2768 42.052267-6.7584l2.730666-1.4336 317.303467-144.725333c12.629333-6.826667 17.408-12.970667 17.408-19.114667 0-5.802667-4.5056-11.810133-16.452267-18.432L561.464661 65.536a112.366933 112.366933 0 0 0-45.397333-8.6016z m-385.911467 238.250667C96.159061 284.672 75.132928 260.232533 75.132928 228.829867c0-29.013333 17.8176-52.360533 49.083733-69.085867L445.001728 13.585067c22.528-8.8064 46.6944-13.243733 70.997333-12.970667 23.825067-0.341333 47.377067 4.232533 69.085867 13.448533l315.1872 138.24 2.184533 1.092267c29.4912 15.906133 47.240533 39.185067 47.240534 68.1984 0 29.0816-17.749333 52.360533-49.015467 69.085867L582.900395 435.746133c-17.066667 9.4208-44.032 14.1312-70.314667 14.1312a171.963733 171.963733 0 0 1-69.085867-13.5168l-313.344-141.175466z m303.854934 602.794666V581.358933c0-12.629333-20.206933-36.6592-44.8512-47.786666L127.971328 403.2512a50.722133 50.722133 0 0 0-16.725333-4.437333 20.206933 20.206933 0 0 0-13.994667 4.846933 13.038933 13.038933 0 0 0-4.437333 10.6496v319.8976c0 12.6976 20.206933 36.6592 45.056 47.9232l256.682666 130.525867c6.417067 2.389333 13.312 3.8912 20.343467 4.437333a22.869333 22.869333 0 0 0 14.336-6.144 15.906133 15.906133 0 0 0 4.778667-12.970667z m-21.0944 75.3664a133.802667 133.802667 0 0 1-41.642667-9.079466l-2.525867-1.160534-256.8192-130.6624c-42.257067-19.0464-77.4144-60.757333-77.4144-98.304V415.266133a67.857067 67.857067 0 0 1 23.005867-52.8384c14.882133-13.380267 34.884267-20.48 56.661333-19.8656 13.380267 0.887467 26.487467 4.096 39.594667 10.103467l261.051733 130.4576c42.257067 18.978133 77.482667 60.8256 77.482667 98.304l-0.068267 314.9824c1.092267 20.138667-6.826667 39.662933-21.640533 54.135467a82.3296 82.3296 0 0 1-55.159467 22.801066h-2.525866z m211.7632-60.074666l262.144-134.826667 2.525866-1.160533c26.2144-10.513067 42.5984-30.1056 42.5984-46.762667V413.2864a12.4928 12.4928 0 0 0-4.437333-9.693867 19.6608 19.6608 0 0 0-12.9024-4.846933 50.9952 50.9952 0 0 0-16.5888 3.822933l-262.144 134.621867-2.4576 1.160533c-26.282667 10.513067-42.5984 30.1056-42.5984 46.762667v317.44c-0.136533 3.413333 1.365333 6.9632 4.437333 9.693867a20.206933 20.206933 0 0 0 13.994667 4.778666 34.133333 34.133333 0 0 0 15.428267-3.6864z m-92.16-11.6736V585.045333c0-41.233067 31.5392-79.4624 77.277866-98.235733l262.144-134.690133c12.0832-5.461333 25.258667-8.738133 39.799467-9.693867 20.548267-0.6144 40.618667 6.5536 55.432533 19.933867a67.310933 67.310933 0 0 1 23.005867 51.882666V730.453333c0 41.233067-31.470933 79.4624-77.141333 98.304l-260.778667 134.144c-12.834133 6.621867-27.0336 10.171733-41.506133 10.376534-20.48 0.546133-40.413867-6.5536-55.227734-19.8656a67.3792 67.3792 0 0 1-23.005866-51.882667z" p-id="4877"></path></svg>