<?xml version="1.0" standalone="no"?><!DOCTYPE svg PUBLIC "-//W3C//DTD SVG 1.1//EN" "http://www.w3.org/Graphics/SVG/1.1/DTD/svg11.dtd"><svg class="icon" width="200px" height="200.00px" viewBox="0 0 1024 1024" version="1.1" xmlns="http://www.w3.org/2000/svg"><path d="M553.381495 541.675313h35.033212v62.498909h-35.033212zM488.506182 541.675313h35.034505v62.498909h-35.034505zM425.117737 541.675313h33.550223v62.498909h-33.550223z" fill="#bfcbd9" /><path d="M840.574707 161.512727c-7.929535 0.28703-15.742707 0.398222-23.389091 0.398222h-0.029737c-201.090586 0-289.676929-92.161293-290.413899-92.953858L506.647273 46.955313l-20.120566 22.001778c-0.879192 0.964525-94.354101 100.035232-313.863758 92.555636l-28.192323-0.959353v417.797171c0 109.384404 36.520081 268.929293 352.318061 390.994748l9.83402 3.802505 9.827556-3.802505c315.79798-122.065455 352.318061-281.611636 352.31806-390.994748v-417.797171l-28.193616 0.959353zM441.594828 354.92202h31.472485v104.658748c12.964202-13.657212 24.295434-29.639111 33.99499-47.949576 8.113131-15.438869 15.33802-34.738424 21.674667-57.896081l35.184485 7.571394c-3.664162 9.699556-8.661333 21.725091-14.995394 36.07402h96.643878v30.43297h-110.301091c-5.939717 10.98602-15.290182 25.385374-28.059151 43.200646-2.178586 2.968566-5.889293 8.264404-11.133414 15.88493-4.950626-6.332768-8.958707-10.737778-12.024243-13.212445a121.954263 121.954263 0 0 0-10.98602-8.016161v36.667474h-31.472485V354.92202z m184.97293 128.115071l-22.565495 25.682747c-11.482505-11.776-21.426424-21.178182-29.838223-28.206545-9.007838-7.519677-20.686869-16.032323-35.035798-25.534061l21.674667-21.970747c23.553293 14.054141 45.474909 30.729051 65.764849 50.028606z m-242.720324-112.676202h31.472485v123.958303h-31.472485v-123.958303z m264.839758 264.24501H365.291313v-30.431677h28.35394v-93.080565h226.240646v93.080565h28.8v30.431677z" fill="#bfcbd9" /></svg>