<?xml version="1.0" standalone="no"?><!DOCTYPE svg PUBLIC "-//W3C//DTD SVG 1.1//EN" "http://www.w3.org/Graphics/SVG/1.1/DTD/svg11.dtd"><svg class="icon" width="200px" height="200.00px" viewBox="0 0 1024 1024" version="1.1" xmlns="http://www.w3.org/2000/svg"><path d="M920.064 55.296h-99.328c-18.944 0-31.744 14.336-31.744 31.744v44.032c0 18.944-14.336 31.744-31.744 31.744H277.504c-18.944 0-31.744-14.336-31.744-31.744v-39.424c0-20.48-15.872-36.352-36.352-36.352H115.2c-18.944 0-31.744 14.336-31.744 31.744v857.088c-1.536 43.52 34.816 79.872 78.848 79.872h713.728c44.032 0 80.384-36.352 80.384-80.384V86.528c-1.536-17.408-18.944-31.232-36.352-31.232z m-135.68 729.088H256.512c-18.944 0-31.744-14.336-31.744-31.744 0-18.944 14.336-31.744 31.744-31.744h527.872c18.944 0 31.744 14.336 31.744 31.744 0 19.456-14.336 31.744-31.744 31.744z m30.208-351.232L593.92 600.064c-15.872 11.264-36.352 9.216-48.64-4.608L423.936 453.632l-151.04 107.008c-15.872 11.264-39.424 9.216-50.176-6.144-11.264-15.872-9.216-39.424 6.144-50.176l1.536-1.536 176.64-125.952c15.872-11.264 36.352-9.216 48.64 6.144l121.344 140.288 192-146.432c15.872-11.264 39.424-9.216 50.176 6.144 12.8 17.408 11.264 37.888-4.608 50.176z" fill="#bfcbd9" /><path d="M384.512 110.08h264.704c18.944 0 31.744-14.336 31.744-31.744V31.744c0-18.944-14.336-31.744-31.744-31.744H384.512c-18.944 0-31.744 14.336-31.744 31.744v47.104c0 17.408 14.336 31.232 31.744 31.232z" fill="#bfcbd9" /></svg>