<?xml version="1.0" standalone="no"?><!DOCTYPE svg PUBLIC "-//W3C//DTD SVG 1.1//EN" "http://www.w3.org/Graphics/SVG/1.1/DTD/svg11.dtd"><svg class="icon" width="200px" height="200.00px" viewBox="0 0 1024 1024" version="1.1" xmlns="http://www.w3.org/2000/svg"><path d="M828.356135 284.809651c0-45.523823-45.300742-45.523823-45.300742-45.523823L239.181451 239.285828c0 0-45.302789 0-45.302789 45.523823l0 45.527916 634.477472 0L828.356135 284.809651 828.356135 284.809651zM692.373067 148.231019 329.8341 148.231019c0 0-45.297672 0-45.297672 45.527916l453.16501 0c0-45.527916-45.359071-45.527916-45.359071-45.527916L692.373067 148.231019zM918.952502 330.337567l-26.801413-26.944676 0 72.472592L130.085754 375.865483 130.085754 303.392892l-26.801413 26.944676c-26.806529 26.945699-46.040592 34.20094-35.198663 91.112114 10.697643 56.67786 62.742996 367.626845 70.422909 409.68166 8.509814 46.153156 55.401798 45.527916 55.401798 45.527916l634.473379 0c0 0 46.89096 0.624217 55.401798-45.527916 7.740288-42.054815 59.725266-353.004823 70.480214-409.68166 10.784624-56.912198-8.422833-64.136739-35.282574-91.112114L918.952502 330.337567zM692.373067 576.182788c0 0 0 45.527916-45.359071 45.527916l-271.851525 0c-45.297672 0-45.297672-45.527916-45.297672-45.527916l0-91.051739 63.455217 0 0 72.842005 235.515968 0 0-72.842005 63.562665 0 0 91.051739L692.373067 576.182788zM692.373067 576.182788" fill="#bfcbd9" /></svg>