<?xml version="1.0" standalone="no"?><!DOCTYPE svg PUBLIC "-//W3C//DTD SVG 1.1//EN" "http://www.w3.org/Graphics/SVG/1.1/DTD/svg11.dtd"><svg class="icon" width="200px" height="200.00px" viewBox="0 0 1024 1024" version="1.1" xmlns="http://www.w3.org/2000/svg"><path d="M964.786087 840.659478h-259.294609c-14.06887-96.166957-45.901913-211.122087-95.543652-344.776348 38.912-102.043826 81.608348-190.464 116.736-201.460869a31.565913 31.565913 0 0 1 18.342957 0.534261c66.070261 21.860174 148.034783 191.977739 245.938087 510.308174a27.38087 27.38087 0 0 1-26.178783 35.394782z" fill="#bfcbd9" /><path d="M687.549217 874.050783H85.170087A49.775304 49.775304 0 0 1 36.819478 812.521739C132.674783 418.816 241.753043 196.830609 364.143304 146.610087c13.04487-2.80487 17.719652-1.157565 27.247305 0 106.22887 22.127304 220.827826 243.400348 343.885913 663.730087a49.775304 49.775304 0 0 1-47.727305 63.710609z" fill="#bfcbd9" /><path d="M670.675478 231.958261C607.365565 231.958261 556.521739 180.313043 556.521739 115.97913 556.521739 51.689739 607.365565 0 670.675478 0c62.73113 0 113.574957 51.645217 114.153739 115.97913-0.578783 64.289391-51.422609 115.97913-114.153739 115.979131z" fill="#bfcbd9" /><path d="M289.391304 934.956522m33.391305 0l601.043478 0q33.391304 0 33.391304 33.391304l0 0q0 33.391304-33.391304 33.391304l-601.043478 0q-33.391304 0-33.391305-33.391304l0 0q0-33.391304 33.391305-33.391304Z" fill="#bfcbd9" /><path d="M66.782609 934.956522m33.391304 0l111.304348 0q33.391304 0 33.391304 33.391304l0 0q0 33.391304-33.391304 33.391304l-111.304348 0q-33.391304 0-33.391304-33.391304l0 0q0-33.391304 33.391304-33.391304Z" fill="#bfcbd9" /></svg>